#!OML:ASF F:\VICON\USERDATA\INSTALL\rory3\rory3.ASF
:FULLY-SPECIFIED
:DEGREES
97
root 0.46511343161359125 17.666611712392157 44.70956579363231 -3.498105319119708 -4.591546437173578 -5.66183762339778
lfemur -23.022783553812143 -2.4686242205944744 -14.905925518073838
ltibia 26.178163629853465
lfoot -4.85778679521696 -1.2841344111434083
ltoes 3.5248002926782025
rfemur 3.1150154738764915 0.10368429752625152 29.928485538692
rtibia 47.83983553547787
rfoot 2.282808950428552 -3.5106230327943804
rtoes 11.582187707595796
lowerback 10.429471722104468 2.1896505863515006 3.8021757438957264
upperback -0.015073652476788033 3.627443024848464 1.6988358666447383
thorax -5.63969737395157 1.6907485823919832 -1.364205279190869
lowerneck -16.057092219242733 -3.6955117884266477 -2.0400219991249675
upperneck 19.665307038746512 -5.571012889899234 3.434483751408127
head 8.82762315871107 -2.315959038251237 0.7365522488113599
lclavicle 2.9911140332189454e-16 5.5314561521886135e-17
lhumerus -37.321504963800805 11.918916174366892 77.60438542241846
lradius 16.782351726022
lwrist -0.12478092360024462
lhand -28.778561959280264 17.662808521309888
lfingers 7.125020000000001
lthumb -1.796464686630355 48.73862338017991
rclavicle 2.9911140322170935e-16 5.531456145052081e-17
rhumerus -30.048503193627432 -19.09152683482085 -77.92205636681518
rradius 28.034055696076436
rwrist 0.15120127540492456
rhand -18.33321560946995 23.33840014014866
rfingers 7.125020000000001
rthumb 7.932590792195671 -6.4563886877729
98
root 0.5121108633624954 17.73723577031493 45.10584908038532 -4.139572122793891 -4.243327743753981 -4.80670825633613
lfemur -20.783678508478108 -1.5718302875740995 -16.727360971051457
ltibia 28.522624489372504
lfoot -6.441760314282692 -1.1571692029773364
ltoes 4.87691599252957
rfemur -0.4722246708563027 -1.6119331262542094 28.07266667955856
rtibia 56.07203327965621
rfoot 7.654396040302424 -3.715821548778755
rtoes 18.486038357245246
lowerback 10.50506357683402 2.0620158993085167 2.9829568731977805
upperback 0.04218788377773616 3.3584455052138473 1.494470469709397
thorax -5.654124723518876 1.5693805557684963 -0.9908955187768893
lowerneck -16.015133788985526 -3.695156599384389 -2.1491076652950714
upperneck 19.7514522065059 -5.565027982363056 3.524381627771603
head 8.856717403887103 -2.3170774265764775 0.7812391944619737
lclavicle 2.9911140332206553e-16 5.531456152310582e-17
lhumerus -37.167673522587044 11.422229053447397 77.85915624966441
lradius 17.299997469130147
lwrist 0.881649688702586
lhand -27.08940106320535 21.47911488883184
lfingers 7.125020000000001
lthumb -0.4372597445727817 51.76683002252957
rclavicle 2.991114032179914e-16 5.5314561448818984e-17
rhumerus -30.223795471119725 -19.18011757852958 -77.8584075503139
rradius 27.941311364141303
rwrist 0.40768696325879983
rhand -18.34108832785205 23.121740384346666
rfingers 7.125020000000001
rthumb 7.865818899425979 -6.78678642691794
99
root 0.5528331641276835 17.823754617002102 45.38677231201467 -4.574001155107397 -4.014977879735187 -3.776682854370135
lfemur -17.70519803965117 -1.0257323245609753 -18.48843930230651
ltibia 29.254283635533845
lfoot -8.579243142236443 -0.514031770590683
ltoes 3.8595885711587936
rfemur -5.193367052010414 -3.244815309954176 26.13614099295897
rtibia 64.09994324805311
rfoot 9.409545880219618 -5.1121626144336645
rtoes 20.156225771400777
lowerback 10.688608380077119 1.8824884575137597 1.968150404600522
upperback 0.13093949129610866 2.977992828946272 1.295204253451157
thorax -5.764678575321158 1.4299507785299725 -0.5653695810935238
lowerneck -16.007265286677825 -3.646821686367063 -2.289473721242985
upperneck 19.750905296832375 -5.436169479610131 3.5344342722282525
head 8.859089912592845 -2.280427078722604 0.8163850816972928
lclavicle 2.991114033258621e-16 5.53145615268869e-17
lhumerus -36.53555647791079 10.0234410744186 78.75297766058647
lradius 18.450724647665094
lwrist 3.1501080371119183
lhand -27.60098740802341 19.856693926362915
lfingers 7.125020000000001
lthumb -1.0658447941625608 50.005830162504765
rclavicle 2.9911140321584407e-16 5.53145614482617e-17
rhumerus -29.994540589897884 -19.148105393932624 -77.87028219761143
rradius 27.9172698014331
rwrist 0.5920824083437477
rhand -18.265411837194907 23.0983461280045
rfingers 7.125020000000001
rthumb 7.873869988739941 -6.960605005558165
100
root 0.5671320616795725 17.866636667020952 45.73897242271468 -4.800723648843766 -3.4686238124746716 -2.9741072325532003
lfemur -14.607681509747708 -1.0948660279565106 -19.864146592014674
ltibia 28.833476228591092
lfoot -9.605100440880712 0.06733114584599509
ltoes 4.066822382182973
rfemur -9.946306577437461 -4.660736133079548 24.865933618110684
rtibia 70.01023902177083
rfoot 6.182864094478501 -7.261334454071469
rtoes 16.96634397615064
lowerback 10.93192126220295 1.5944913070393751 0.9934834535583342
upperback 0.22269159521550425 2.4725942691256924 1.1692651528264089
thorax -5.899891098641519 1.2166891707311578 0.060337670627253814
lowerneck -16.083410877665546 -3.5809326493244096 -2.4581368484919075
upperneck 19.736471348980952 -5.303248867727357 3.5691478482834507
head 8.870867754323427 -2.2414144935310167 0.8652621395336215
lclavicle 2.9911140332314395e-16 5.5314561526119557e-17
lhumerus -35.54574896475901 8.452249870234635 79.54404821495307
lradius 19.547029706082842
lwrist 5.002234246668438
lhand -28.755214605769087 17.645659476284052
lfingers 7.125020000000001
lthumb -2.232763994323372 47.53754219543609
rclavicle 2.9911140320669595e-16 5.5314561442824825e-17
rhumerus -29.52850142269563 -18.984496872636747 -77.90947413673833
rradius 27.92728346794047
rwrist 0.9031399709636898
rhand -18.19819500735295 23.087353734399745
rfingers 7.125020000000001
rthumb 7.941786826958619 -7.024299706878723
101
root 0.5906146020324747 17.89363168936909 46.796720549309065 -4.863910351673708 -2.5209929204185233 -2.030140129608565
lfemur -11.18184066799383 -1.2893475456795058 -21.349623647371118
ltibia 27.414128365539696
lfoot -10.683516287274298 1.064163041778385
ltoes 4.244650336928908
rfemur -14.50166108416318 -5.68291552033794 23.953939356587334
rtibia 72.98318282266057
rfoot 2.195721299310885 -8.681089514157804
rtoes 13.588888198901948
lowerback 11.122638671123537 1.2656998745031114 0.24389604491942052
upperback 0.3057033968262266 1.9079029603821651 1.0778827970684208
thorax -5.945234947065422 0.9617633612599071 0.5572163955858945
lowerneck -16.199940836311992 -3.5276714424316995 -2.6577150400634952
upperneck 19.77790069696127 -5.174446533013878 3.6539877404971155
head 8.90868854141251 -2.203413313944333 0.9362380244112907
lclavicle 2.9911140332240893e-16 5.531456152680285e-17
lhumerus -34.18963002530507 7.001636878441461 80.18508234553539
lradius 20.55213388313596
lwrist 6.030883519692916
lhand -29.210776237221953 18.27674222882698
lfingers 7.125020000000001
lthumb -2.806437399011863 47.672713015614164
rclavicle 2.991114032044875e-16 5.5314561442345444e-17
rhumerus -29.220780988776536 -18.678722197094174 -78.08727157290357
rradius 28.167269314625194
rwrist 0.9073446835690935
rhand -18.140161600789845 23.12936020107716
rfingers 7.125020000000001
rthumb 8.014094011474635 -6.994366539994217
102
root 0.5953248972063447 17.910593274317026 47.041587037053 -4.8686762972860285 -1.7070876310752139 -1.5704290649965824
lfemur -7.865399827846834 -1.7634216646722183 -22.32176935987868
ltibia 25.842562887186347
lfoot -12.01837972709398 1.7639602393107774
ltoes 2.982979941389976
rfemur -18.49454447638084 -5.758752363297989 23.64141111615961
rtibia 73.01268107013114
rfoot -1.285398572089937 -9.064193657351973
rtoes 11.333419118036364
lowerback 11.351740568040032 0.9083117969456661 -0.33801554468989403
upperback 0.3767358661050164 1.3422275513106094 1.0817520995594225
thorax -5.999126729071218 0.7048023451752156 1.0610591490890444
lowerneck -16.386499329825277 -3.4855087887716727 -2.8636979255362185
upperneck 19.830652440425776 -5.021094386282437 3.6985924127074523
head 8.96157620314473 -2.1543994089103737 0.9875763514747768
lclavicle 2.991114033269323e-16 5.531456153100342e-17
lhumerus -32.61364246691213 5.25972439408799 80.80661894345889
lradius 21.552237200764985
lwrist 6.578684737643185
lhand -29.852124109543595 18.12251621376887
lfingers 7.125020000000001
lthumb -3.301239458272606 47.66310256918269
rclavicle 2.991114032068198e-16 5.5314561445150713e-17
rhumerus -29.105466046080238 -18.323631640869976 -78.21928490079853
rradius 28.623658872023054
rwrist 0.5404690267575369
rhand -18.184128555948675 22.907940369568866
rfingers 7.125020000000001
rthumb 7.981907111408732 -7.250355828371375
103
root 0.5945341591120502 17.90635019861693 47.82428266397653 -4.689747972089586 -0.7872902123527805 -1.0919135760021632
lfemur -4.870011201718926 -2.3976944525087127 -23.36042545122335
ltibia 24.591211541611845
lfoot -13.362073044070346 2.2787280525214326
ltoes 2.4722376564029087
rfemur -21.891826172910815 -5.260371490602196 23.354660217242834
rtibia 70.39663673315452
rfoot -3.8187194620662224 -9.173827969912724
rtoes 8.96556876694704
lowerback 11.561045890799324 0.5408551866410884 -1.0352315682815962
upperback 0.4732312334580459 0.7499669974886323 1.1155938150106606
thorax -6.015005691992993 0.43006682504452465 1.7155783143495626
lowerneck -16.604955093875834 -3.4451690633699084 -3.042424024114843
upperneck 19.778891843035122 -4.869128257069357 3.6889727862918673
head 8.978440402170556 -2.1038730646534707 1.0136162962052486
lclavicle 2.9911140333028235e-16 5.531456153422952e-17
lhumerus -30.674339161192787 3.455704446886924 81.31830156453526
lradius 22.691346316761717
lwrist 7.425202690086709
lhand -29.405628877068864 19.884282308806153
lfingers 7.125020000000001
lthumb -2.94789134660558 49.188407603314474
rclavicle 2.991114032075163e-16 5.531456144654519e-17
rhumerus -28.98048353305235 -18.072813415278574 -78.39523700239407
rradius 29.117871364024253
rwrist -0.016761653020819445
rhand -18.28837652119488 22.586466904886223
rfingers 7.125020000000001
rthumb 7.865337592852997 -7.596186223414543
104
root 0.591331277392889 17.856882726177716 47.84078857893853 -4.415833667897299 -0.09199269597293128 -0.7312351187663748
lfemur -2.497943961748592 -3.0619845365486613 -24.23145749384374
ltibia 23.930498225909556
lfoot -15.171139149740931 2.878276606924498
ltoes 2.205771306642365
rfemur -25.02279097819396 -4.525324613539535 23.018438144032963
rtibia 65.58465445012362
rfoot -5.701289310645622 -9.186467562188287
rtoes 6.800504968768642
lowerback 11.673515504503873 0.27475401959121604 -1.4083712175793945
upperback 0.5262012840645793 0.35623091076086233 1.173369989101978
thorax -6.0313990800855946 0.24524307743150692 2.0486555429663103
lowerneck -16.80643851327451 -3.424603689228435 -3.1748412033574285
upperneck 19.68999862034051 -4.787804891936455 3.7173221687185443
head 8.983398651121494 -2.0793309742784456 1.046112357245971
lclavicle 2.991114033355801e-16 5.5314561538644955e-17
lhumerus -28.982542476345788 1.6560330911190069 81.50729271421885
lradius 23.89276290495004
lwrist 8.346130055372443
lhand -29.22479046614619 19.816627844948254
lfingers 7.125020000000001
lthumb -2.7453109833926206 49.25378293409093
rclavicle 2.991114032069484e-16 5.531456144676419e-17
rhumerus -29.046854982152865 -17.841508618453688 -78.61767240108698
rradius 29.54402113964827
rwrist -0.6776389616969154
rhand -18.38989102116119 22.338583592862246
rfingers 7.125020000000001
rthumb 7.705459730047625 -7.909066494931683
